<?xml version="1.0" encoding="utf-8"?>
<!-- Generator: Adobe Illustrator 27.0.0, SVG Export Plug-In . SVG Version: 6.00 Build 0)  -->
<svg version="1.1" id="Layer_1" xmlns:serif="http://www.serif.com/"
	 xmlns="http://www.w3.org/2000/svg" xmlns:xlink="http://www.w3.org/1999/xlink" x="0px" y="0px" viewBox="0 0 456 456"
	 style="enable-background:new 0 0 456 456;" xml:space="preserve">
<style type="text/css">
	.st0{fill:#FFFFFF;}
</style>
<g>
	<path class="st0" d="M45.3,241.4c0,2.4-1.5,4.3-4.6,5.6c-2.4,1-5,1.6-7.8,1.6c-2.6,0-5.4-0.5-8.4-1.6c-3.9-1.3-5.9-3-5.9-5
		c0-1.1,0.5-1.6,1.6-1.6c0.8,0,1.8,0.5,2.9,1.4c1.5,1.4,2.3,2.2,2.5,2.3c1.7,1.1,4.3,1.6,8,1.6c5,0,7.4-1.3,7.4-3.9
		c0-1.2-1.1-2.7-3.2-4.5c-0.3-0.3-2-1.4-4.9-3.5c-4.7-3.3-7.6-5.6-8.8-6.9c-2.7-2.9-4.1-6.3-4.1-10.2c0-3.6,1-6.8,3.1-9.8
		c2.3-3.3,5.1-5,8.5-5c2.9,0,5.4,1.2,7.5,3.7c1.8,2.2,3,4.8,3.6,7.9c0,1,0.2,2.6,0.5,4.8l0.5,2.3c0,3.5-0.8,5.2-2.5,5.2
		c-0.4,0-0.9-0.2-1.3-0.7c-0.5-0.5-0.7-1-0.7-1.4c0-0.6,0.1-1.5,0.4-2.7c0.2-1.2,0.4-2.1,0.4-2.7c0-3-0.5-5.7-1.4-8
		c-1.3-3.1-3.2-4.7-5.7-4.7c-2.5,0-4.7,1.1-6.4,3.4c-1.7,2.2-2.6,4.7-2.6,7.3c0,3.6,1.9,7,5.6,10.2c3.4,2.5,6.9,5,10.3,7.5
		C43.5,236.7,45.3,239.2,45.3,241.4z"/>
	<path class="st0" d="M66.9,222.5c0,1.3-0.1,3.4-0.4,6c-0.3,2.7-0.4,5-0.4,6.9c0,0.8,0.1,2.3,0.2,4.5c0.2,2.2,0.2,3.8,0.2,4.7
		c0,1.9-0.2,3.1-0.7,3.5c-0.3,0.2-0.6,0.3-1.1,0.3c-1,0-1.6-0.4-2-1.2c-0.2-0.8-0.3-1.6-0.5-2.4c-1.3,1.9-3.4,3.2-6.5,3.7
		c-1.1,0.2-2.4-0.3-3.9-1.5c-1.3-1-2.2-2.1-2.7-3.1c-0.6-1.4-0.9-4.2-0.9-8.3v-14.2c-0.3-1.3,0.5-2,2.2-2c1.2,0,1.8,0.7,1.8,2.1
		c0,2.1-0.1,4.8-0.2,8.2c-0.1,4.3-0.2,7-0.2,8.2c0,1.6,0.3,3.1,1,4.7c0.9,1.9,2,2.8,3.3,2.8c2.2,0,3.9-1.5,5.2-4.4
		c0.9-2.2,1.3-4.7,1.3-7.3v-8.5c0-0.3-0.1-0.8-0.4-1.5c-0.2-0.6-0.4-1.1-0.4-1.5c0-0.2,0-0.5,0.1-0.7c0.6-0.6,1.2-0.9,1.8-0.9
		C65.9,220,66.9,220.8,66.9,222.5z"/>
	<path class="st0" d="M91,230.9c0,4.3-0.6,7.9-1.9,10.8c-1.7,4-4.4,6.1-8,6.1c-2.4,0-4.5-1.1-6.3-3.3c-0.3,0.1-0.5,1.5-0.5,4
		c0,5.7,0.3,9.7,0.8,12c0,0.2,0.2,0.7,0.6,1.6c0.4,0.8,0.6,1.3,0.6,1.5c0,0.7-0.4,1-1.3,1c-1,0-1.8-0.2-2.2-0.5
		c-0.4-0.3-0.8-1.3-1.1-3c-0.3-1.4-0.4-2.6-0.4-3.4v-16.6c0-1.5,0.1-3.6,0.2-6.1c0.2-3,0.3-5,0.3-6.1c0-1.2,0-2.7,0-4.6
		c0-2.4,0-3.9,0-4.6c0-3,0.8-4.5,2.3-4.5c0.8,0,1.2,0.3,1.2,0.8c0,1.1-0.1,2.7-0.3,4.8c-0.2,2.1-0.3,3.7-0.3,4.7h0.3
		c1-1.3,2-2.7,3-4.1c1.2-1.5,2.6-2.3,4.4-2.3c2.9,0,5.1,1.3,6.6,3.9C90.4,225.2,91,227.8,91,230.9z M87.7,231.2
		c0-2.3-0.2-4.3-0.7-5.9c-0.7-2.4-1.9-3.7-3.6-3.7c-1.2,0-2.7,1.1-4.4,3.2c-1.5,1.9-2.6,3.8-3.2,5.7c-0.5,1.5-0.9,3.7-1.2,6.5
		c-0.2,2.1-0.3,3.1-0.3,3c0,0.1,0.2,0.3,0.6,0.7c0.3,0.2,0.5,0.4,0.8,0.6c0.7,1,1.4,2,2.1,3c0.7,1,1.8,1.5,3.2,1.5
		c2.4,0,4.2-2,5.4-5.9C87.3,237.2,87.7,234.3,87.7,231.2z"/>
	<path class="st0" d="M113.4,240.4c0,1.9-1.3,3.6-3.8,5.2c-2.3,1.4-4.5,2.1-6.5,2.1c-5.8,0-8.7-3.7-8.7-11.1c0-3.3,0.6-6.8,1.8-10.5
		c1.6-4.9,3.6-7.3,6-7.3c2.1,0,4.4,1.1,6.9,3.2c2.5,2.1,3.7,4.2,3.7,6.3c0,2.7-1.1,5-3.3,7c-2.2,2-4.6,3-7.4,3
		c-0.3,0-0.8-0.2-1.7-0.7c-0.8-0.4-1.4-0.7-1.7-0.7c-0.6,0-0.8,0.2-0.8,0.5c0,5,1.7,7.5,5,7.5c1.7,0,3.3-0.6,4.7-1.7
		c0.9-0.7,1.8-1.7,2.9-3.1c0.8-1.1,1.4-1.6,1.6-1.6C112.9,238.6,113.4,239.2,113.4,240.4z M108.9,228.4c0-1.5-0.4-2.9-1.3-4.3
		c-0.9-1.3-2-2-3.5-2c-1.7,0-3.2,1.1-4.2,3.3c-0.9,1.8-1.4,3.7-1.4,5.7c0,1.3,0.4,2.3,1.2,3.2c0.8,0.8,1.8,1.3,3.1,1.3
		c1.8,0,3.3-0.8,4.4-2.3C108.3,231.9,108.9,230.3,108.9,228.4z"/>
	<path class="st0" d="M130.8,223.7c0,0.2,0,0.5-0.1,1.1c-0.6,0.9-1.1,1.3-1.6,1.3c-0.3,0-0.7-0.2-0.9-0.7c-0.1-2.7-1.3-4.1-3.4-4.1
		c-1.4,0-2.8,2.6-4.1,7.7c-0.5,1.9-0.8,4.4-0.8,7.5c0,4,0.1,6.5,0.3,7.4c0,0.1,0.2,0.4,0.3,0.8c0.2,0.4,0.3,0.7,0.3,0.9
		c0,1-0.7,1.4-2,1.4c-1.5,0-2.2-0.8-2.2-2.3c0-0.2,0.1-0.5,0.2-0.9c0.1-0.4,0.2-0.7,0.2-0.9c0-2.4-0.1-6-0.3-10.8
		c-0.2-4.8-0.3-8.4-0.3-10.8c0-0.9,0.2-1.4,0.5-1.6c0.3-0.2,0.9-0.3,1.8-0.3c1.1,0,1.7,0.4,1.9,1.2c0,0.9,0.1,1.7,0.1,2.5
		c1.1-1.7,1.8-2.7,2-2.9c1-1.1,2-1.6,3-1.6c0.8,0,1.6,0.2,2.3,0.7c0.4,0.3,1,0.9,1.8,2C130.4,222.5,130.8,223.2,130.8,223.7z"/>
	<path class="st0" d="M163,219.6c0,6.6-1.5,12.8-4.4,18.6c-3.6,7-8.4,10.6-14.4,10.6c-2.2,0-4.2-0.8-6.1-2.3c-0.7,1-1.2,1.4-1.4,1.4
		c-0.5,0-1-0.2-1.4-0.5c-0.6-1.7-0.9-5-0.9-9.8c0-3.7,0.1-9.1,0.2-16.3c0.1-7.2,0.2-12.6,0.2-16.3c0-0.1,0-0.2,0-0.5
		c0-0.2,0-0.4,0-0.6c0-1,0.5-1.4,1.6-1.4c0.5,0,1.1,0.2,1.7,0.6c0.6,0.4,0.9,0.9,0.9,1.3c0,0.5-0.2,1.2-0.5,1.9
		c-0.3,0.8-0.5,1.4-0.5,1.9c0,1.6,0,2.4,0,2.5c0.5-0.3,1.3-1.4,2.3-3.2c1-1.8,2-3.2,3.1-4c1.6-1.4,3.7-2.1,6.2-2.1
		c4.7,0,8.2,1.9,10.5,5.8C162,210.5,163,214.6,163,219.6z M159.2,219.2c0-4-0.6-7.2-1.7-9.9c-1.5-3.7-4-5.5-7.4-5.5
		c-2.4,0-4.9,1.5-7.2,4.5c-2,2.5-3.3,5.1-4.1,7.9c-0.7,2.5-1,5.2-1,8.1v13.5c0,2,0.5,3.8,1.6,5.3c1.2,1.7,2.8,2.5,4.8,2.5
		c3.5,0,6.6-1.8,9.3-5.5c2.3-3,3.9-6.4,4.7-10.3C158.8,226.4,159.2,222.9,159.2,219.2z"/>
	<path class="st0" d="M185.7,240.4c0,1.9-1.3,3.6-3.8,5.2c-2.3,1.4-4.5,2.1-6.5,2.1c-5.8,0-8.7-3.7-8.7-11.1c0-3.3,0.6-6.8,1.8-10.5
		c1.6-4.9,3.6-7.3,6-7.3c2.1,0,4.4,1.1,6.9,3.2c2.5,2.1,3.7,4.2,3.7,6.3c0,2.7-1.1,5-3.3,7c-2.2,2-4.6,3-7.4,3
		c-0.3,0-0.8-0.2-1.7-0.7c-0.8-0.4-1.4-0.7-1.7-0.7c-0.6,0-0.8,0.2-0.8,0.5c0,5,1.7,7.5,5,7.5c1.7,0,3.3-0.6,4.7-1.7
		c0.9-0.7,1.8-1.7,2.9-3.1c0.8-1.1,1.4-1.6,1.6-1.6C185.2,238.6,185.7,239.2,185.7,240.4z M181.2,228.4c0-1.5-0.4-2.9-1.3-4.3
		c-0.9-1.3-2-2-3.5-2c-1.7,0-3.2,1.1-4.2,3.3c-0.9,1.8-1.4,3.7-1.4,5.7c0,1.3,0.4,2.3,1.2,3.2c0.8,0.8,1.8,1.3,3.1,1.3
		c1.8,0,3.3-0.8,4.4-2.3C180.7,231.9,181.2,230.3,181.2,228.4z"/>
	<path class="st0" d="M207.6,243.1c0,1.5-1.2,2.8-3.5,3.9c-1.9,0.8-3.8,1.2-5.5,1.2c-1.2,0-2.5-0.3-4-0.9c-0.8-0.4-2.2-1.3-4-2.8
		c-2-1.6-3-2.7-3-3.4c0-1.4,0.8-2,2.4-1.8h0.4c0.1,1.3,1.5,2.7,4.2,4.3c2.4,1.4,4.4,2.1,5.9,2.1c1.9,0,2.9-0.7,2.9-2
		c0-0.8-1.2-1.9-3.5-3.3c-3.2-1.9-5.4-3.4-6.6-4.5c-2.4-2.3-3.6-5-3.6-8c0-2.3,0.6-4.4,1.8-6.5c1.3-2.4,3-3.7,5.1-3.7
		c1.5,0,3.3,0.7,5.4,2.1c2.1,1.4,3.3,2.8,3.7,4.1c0.3,1.2,0.5,2.5,0.5,4.1c0,1.7-0.3,3.5-0.9,5.5c-0.4,0.3-0.8,0.5-1.4,0.5
		c-0.3,0-0.8-0.1-1.4-0.4c-0.7-0.2-1-0.5-1-0.8c0,0.2,0.2-0.3,0.7-1.4c0.3-0.7,0.5-2.1,0.5-4c0-4.7-1.5-7-4.4-7
		c-1.5,0-2.7,1-3.7,3.1c-0.8,1.7-1.2,3.3-1.2,5c0,2.1,1.2,4.2,3.7,6.2c0.8,0.7,3.1,2.2,6.9,4.5C206.4,241,207.6,242.2,207.6,243.1z"
		/>
	<path class="st0" d="M216.1,221.4c0,0.8-0.2,2-0.6,3.5c-0.4,1.6-0.6,2.7-0.6,3.5v14.4c0,1,0.2,2.3,0.7,3.9
		c-0.2,0.3-0.4,0.5-0.7,0.5c-2.1,0-3.2-1-3.2-3.1v-23.9c0.6-0.3,1.1-0.5,1.6-0.5s1.1,0.2,1.6,0.5C215.8,220.6,216.1,221,216.1,221.4
		z M217.4,211.6c0,1.5-0.7,2.2-2.1,2.2c-0.8,0-1.6-0.3-2.3-0.9c-0.7-0.6-1-1.3-1-2.1c0-1.5,0.7-2.2,2.2-2.2c0.9,0,1.6,0.3,2.3,0.8
		C217,210,217.4,210.7,217.4,211.6z"/>
	<path class="st0" d="M239.7,227.3c0,0.3,0,0.6-0.1,1.1c-0.9,4.3-1.4,7.9-1.4,10.5c0,1.3,0.1,3.4,0.2,6.2c0.1,2.8,0.2,4.9,0.2,6.3
		c0,2.7-0.2,4.7-0.7,5.9c-0.5,1.4-1.5,2.6-3,3.6c-1.5,1-3,1.4-4.6,1.4c-1.8,0-3.9-0.4-6.3-1.2c-3-1-4.6-2.1-4.6-3.5
		c0-1.2,0.5-1.8,1.4-1.8c0.4,0,0.7,0.3,1,0.8c0.4,0.7,0.7,1.2,0.8,1.2c0.3,0.3,1.2,0.7,2.7,1c1.3,0.3,2.3,0.5,2.9,0.5
		c2.4,0,4.3-1,5.5-2.9c1.1-1.6,1.6-3.7,1.6-6.3c0-2.8-0.2-5-0.7-6.7c-2.1,2.7-4.6,4.1-7.5,4.1c-0.9,0-1.9-0.3-3.1-0.9
		c-1.2-0.6-2-1.2-2.6-1.9c-1.2-1.4-1.8-3.6-1.8-6.6c0-3.7,0.7-7.7,2-11.9c1.7-5.5,4-8.3,6.9-8.3c2.3,0,4.7,2,7.2,6.1
		c0.3,0.5,0.7,1.1,1.2,1.9C237.8,226.3,238.7,226.7,239.7,227.3z M235.8,230.9c0-0.9-0.3-1.7-1-2.3c-0.1-1.8-0.6-3.4-1.4-4.7
		c-1-1.6-2.3-2.4-4-2.4c-1.2,0-2.3,1.3-3.5,4c-0.9,2-1.5,3.9-1.8,5.6c-0.4,2.6-0.7,4.8-0.7,6.7c0,5.3,1.5,8,4.6,8
		c2.3,0,4.3-2,5.9-5.9C235.2,236.7,235.8,233.7,235.8,230.9z"/>
	<path class="st0" d="M264.3,247.2c-0.2,0.5-0.6,0.7-1,0.7c-0.5,0-1.2-0.3-2.2-0.9v-0.5c0-0.4,0-1,0-1.8c0-0.8,0-1.3,0-1.7
		c0-14.4-1.8-21.7-5.4-21.7c-1.1,0-2.3,0.8-3.6,2.5c-3.3,4.1-4.9,9.2-4.9,15.5c0,0.8,0.1,2,0.4,3.6c0.2,1.6,0.4,2.8,0.4,3.6
		c0,0.7-0.4,1-1.3,1c-1.7,0-2.5-1.4-2.5-4.1v-14.8c0-0.4,0-1,0.1-1.7c0-0.7,0.1-1.3,0.1-1.7c0-0.6-0.1-1.4-0.2-2.5
		c-0.2-1.1-0.2-1.9-0.2-2.4c0-0.3,0.3-0.8,0.8-1.2c0.5-0.5,1-0.7,1.3-0.7c0.6,0,1.1,0.3,1.6,0.9c-0.1,2.8-0.2,4.5-0.2,5
		c0,0.7,0,1.3,0.1,1.9c0.4-0.1,0.9-0.8,1.6-2.2c0.8-1.7,1.5-2.8,2.1-3.4c1-1.2,2.2-1.8,3.6-1.8c0.5,0,1.3,0.2,2.3,0.6
		c2.3,0.9,4,2.3,5,4.3c1.7,3.4,2.5,8,2.5,13.6V247.2z"/>
	<path class="st0" d="M296.2,236.1c0,3.6-1.5,6.4-4.6,8.5c-2.8,2-6.2,2.9-10.2,2.9c-5.2,0-9-2.2-11.4-6.7c-1.8-3.4-2.7-8-2.7-13.8
		c0-5.8,1.1-11.1,3.4-16c2.9-6.2,6.9-9.3,11.9-9.3c0.4,0,1,0.2,2,0.5c2.5,1,4.7,3.3,6.5,6.8c1.7,3.3,2.6,6.4,2.6,9.4
		c0,5.3-1.1,8-3.2,8c-1.2,0-1.8-0.5-1.8-1.5c0-0.2,0.3-0.8,0.9-1.9c0.6-1.1,0.9-2,0.9-2.6c0-3.1-0.6-6.1-1.8-9.1
		c-1.5-3.9-3.6-5.9-6.3-5.9c-2.7,0-5.1,1.6-7.1,4.9c-1.6,2.6-2.6,5.5-3.2,8.7c-0.5,3.2-0.8,6.1-0.8,8.4c0,4.6,0.4,7.9,1.2,10.1
		c1.2,3.4,3.5,5.6,7,6.7c1.1,0.3,2,0.5,2.7,0.5c2,0,3.9-0.5,5.7-1.5c1.8-1,3.1-2.3,4-4c0.9-1.6,1.3-2.7,1.3-3.3c0-1-0.7-1.4-2.2-1.4
		c-3,0-5.4,0.4-7.2,1.3c-1.8,0.8-2.6,1.3-2.5,1.3c-1.4,0-2.2-1.2-2.2-3.5c0-0.5,0.3-1,0.8-1.3c0.6-0.3,2.2-0.7,4.8-1.2
		c2.5-0.4,4.2-0.7,5.1-0.7c1.7,0,3.2,0.5,4.4,1.6C295.6,233.1,296.2,234.4,296.2,236.1z"/>
	<path class="st0" d="M303.8,221.4c0,0.8-0.2,2-0.6,3.5s-0.6,2.7-0.6,3.5v14.4c0,1,0.2,2.3,0.7,3.9c-0.2,0.3-0.4,0.5-0.7,0.5
		c-2.1,0-3.2-1-3.2-3.1v-23.9c0.6-0.3,1.1-0.5,1.6-0.5c0.5,0,1.1,0.2,1.6,0.5C303.4,220.6,303.8,221,303.8,221.4z M305,211.6
		c0,1.5-0.7,2.2-2.1,2.2c-0.8,0-1.6-0.3-2.3-0.9c-0.7-0.6-1-1.3-1-2.1c0-1.5,0.7-2.2,2.2-2.2c0.9,0,1.6,0.3,2.3,0.8
		C304.7,210,305,210.7,305,211.6z"/>
	<path class="st0" d="M322.8,223.7c0,0.2,0,0.5-0.1,1.1c-0.6,0.9-1.1,1.3-1.6,1.3c-0.3,0-0.7-0.2-0.9-0.7c-0.1-2.7-1.3-4.1-3.4-4.1
		c-1.4,0-2.8,2.6-4.1,7.7c-0.5,1.9-0.8,4.4-0.8,7.5c0,4,0.1,6.5,0.3,7.4c0,0.1,0.2,0.4,0.3,0.8c0.2,0.4,0.3,0.7,0.3,0.9
		c0,1-0.7,1.4-2,1.4c-1.5,0-2.2-0.8-2.2-2.3c0-0.2,0.1-0.5,0.2-0.9c0.1-0.4,0.2-0.7,0.2-0.9c0-2.4-0.1-6-0.3-10.8
		c-0.2-4.8-0.3-8.4-0.3-10.8c0-0.9,0.2-1.4,0.5-1.6c0.3-0.2,0.9-0.3,1.8-0.3c1.1,0,1.7,0.4,1.9,1.2c0,0.9,0.1,1.7,0.1,2.5
		c1.1-1.7,1.8-2.7,2-2.9c1-1.1,2-1.6,3-1.6c0.8,0,1.6,0.2,2.3,0.7c0.4,0.3,1,0.9,1.8,2C322.4,222.5,322.8,223.2,322.8,223.7z"/>
	<path class="st0" d="M330.9,246.3c0,1.1-0.6,1.7-1.8,1.7c-1.9,0-2.8-3.9-2.8-11.8l0.2-29.3c0-0.5-0.1-1.2-0.2-2.1
		c-0.1-0.9-0.2-1.6-0.2-2c0.8-0.6,1.5-0.9,2.1-0.9c0.6,0,1.2,0.2,1.8,0.7c0.6,0.4,0.9,1,0.9,1.6c0,0.4-0.1,1-0.3,1.7
		c-0.3,0.9-0.4,1.4-0.5,1.6c-0.5,3-0.8,7.1-0.8,12.4c0,8.6,0,12.7-0.1,12.4c0.1,5.3,0.5,9.4,1,12.1c0,0.1,0.1,0.4,0.3,0.9
		C330.8,245.6,330.9,246,330.9,246.3z"/>
	<path class="st0" d="M334.5,244c0-0.5,0.2-1,0.5-1.5c0.3-0.5,1.1-0.7,2.3-0.7c0.8,0,1.5,0.3,2.1,0.8c0.6,0.5,1,1.3,1.2,2.5
		c0.3,1.8,0.4,3.4,0.4,4.7c-0.1,1.3-0.5,2.7-1.3,4.1c-0.7,1.3-1.5,2.3-2.4,3c-0.9,0.8-1.7,1.1-2.6,1.1c-0.7,0-1.1-0.3-1.2-0.9
		s0.2-1.1,0.8-1.7c0.7-0.7,1.5-1.3,2.3-1.8c0.8-0.6,1.4-1.4,1.9-2.4c0.3-0.9,0.3-1.8,0-2.8c-0.3-1-0.9-1.7-1.6-2.2
		c-0.7-0.5-1.3-0.9-1.7-1.1C334.7,244.8,334.5,244.4,334.5,244z"/>
	<path class="st0" d="M381.4,245.5c-4,1.5-8.5,2.3-13.6,2.3c-3.7,0-6.3-1.5-7.7-4.4c-1-2-1.5-5.2-1.5-9.4c0-2.7,0.2-6.7,0.6-12.1
		c0.4-5.3,0.6-9.4,0.6-12c0-0.6,0-1.4-0.1-2.5c-0.1-1.1-0.1-1.9-0.1-2.5c0-0.4,0-0.9,0.1-1.4c0.5-0.6,1.1-0.8,2-0.8
		c1.5,0,2.3,1.8,2.3,5.3c0,3.1-0.3,7.7-0.8,13.9c-0.6,6.2-0.8,10.8-0.8,13.9c0,5.9,2,8.8,5.9,8.8c1.3,0,3.1-0.4,5.5-1.1
		c2.4-0.7,4.2-1.1,5.5-1.1c0.7,0,1.2,0.3,1.7,0.9C381.2,244,381.4,244.7,381.4,245.5z"/>
	<path class="st0" d="M406.2,245.5c-4,1.5-8.5,2.3-13.6,2.3c-3.7,0-6.3-1.5-7.7-4.4c-1-2-1.5-5.2-1.5-9.4c0-2.7,0.2-6.7,0.6-12.1
		c0.4-5.3,0.6-9.4,0.6-12c0-0.6,0-1.4-0.1-2.5c-0.1-1.1-0.1-1.9-0.1-2.5c0-0.4,0-0.9,0.1-1.4c0.5-0.6,1.1-0.8,2-0.8
		c1.5,0,2.3,1.8,2.3,5.3c0,3.1-0.3,7.7-0.8,13.9c-0.6,6.2-0.8,10.8-0.8,13.9c0,5.9,2,8.8,5.9,8.8c1.3,0,3.1-0.4,5.5-1.1
		c2.4-0.7,4.2-1.1,5.5-1.1c0.7,0,1.2,0.3,1.7,0.9C406,244,406.2,244.7,406.2,245.5z"/>
	<path class="st0" d="M437.4,236.9c0,0.7-0.2,1.6-0.6,2.7c-0.9,2.7-2.8,4.8-5.5,6.4c-2.6,1.5-5.4,2.2-8.4,2.2
		c-5.1,0-8.9-2.1-11.5-6.3c-2.2-3.4-3.3-7.8-3.3-13.2c0-4.6,0.7-9,2-13c1.5-4.8,3.8-8.5,6.8-11.1c2.2-2,4.5-2.9,6.7-2.9
		c3.3,0,5.8,1.6,7.5,4.8c1.3,2.5,2,5.6,2,9.3c0,1.8-0.3,3.9-0.8,6.3c-0.7,3.1-1.7,4.7-2.9,4.7c-0.9,0-1.6-0.5-2-1.4
		c0.3-0.2,0.7-0.5,1.2-0.9c1.1-1.1,1.7-3.7,1.7-8c0-2.6-0.5-5-1.4-7.4c-1.2-3-2.9-4.6-5-4.6c-1.7,0-3.5,1-5.3,3.1
		c-1.4,1.5-2.6,3.3-3.6,5.3c-2.2,4.6-3.3,10.3-3.3,17c0,4.5,0.8,8,2.3,10.7c2,3.3,5,5,9.1,5c2.3,0,4.3-0.6,6.2-1.8
		c1.9-1.2,3.3-2.8,4.3-4.8c0.2-0.7,0.5-1.6,1.1-2.7c0.3-0.6,0.8-0.8,1.3-0.8C436.9,235.4,437.4,235.9,437.4,236.9z"/>
</g>
</svg>
