<?xml version="1.0" encoding="utf-8"?>
<!-- Generator: Adobe Illustrator 27.0.0, SVG Export Plug-In . SVG Version: 6.00 Build 0)  -->
<svg version="1.1" id="Layer_1" xmlns:serif="http://www.serif.com/"
	 xmlns="http://www.w3.org/2000/svg" xmlns:xlink="http://www.w3.org/1999/xlink" x="0px" y="0px" viewBox="0 0 456 456"
	 style="enable-background:new 0 0 456 456;" xml:space="preserve">
<style type="text/css">
	.st0{fill:#010101;}
</style>
<path class="st0" d="M369.3,158.6c8.2-8.2,8.2-21.6,0-29.8l-63.2-63.2c-8.2-8.2-21.6-8.2-29.8,0s-8.2,21.6,0,29.8l27.3,27.3h-202
	c-11.7,0-21.1,9.4-21.1,21.1c0,11.7,9.4,21.1,21.1,21.1h202l-27.3,27.3c-8.2,8.2-8.2,21.6,0,29.8c8.2,8.2,21.6,8.2,29.8,0
	L369.3,158.6L369.3,158.6z M149.8,390.4c8.2,8.2,21.6,8.2,29.8,0c8.2-8.2,8.2-21.6,0-29.8l-27.2-27.2h202c11.7,0,21.1-9.4,21.1-21.1
	c0-11.7-9.4-21.1-21.1-21.1h-202l27.3-27.3c8.2-8.2,8.2-21.6,0-29.8c-8.2-8.2-21.6-8.2-29.8,0l-63.2,63.2c-8.2,8.2-8.2,21.6,0,29.8
	L149.8,390.4L149.8,390.4z"/>
</svg>
